<?xml version="1.0" encoding="UTF-8"?>
<svg id="Layer_1" data-name="Layer 1" xmlns="http://www.w3.org/2000/svg" viewBox="0 0 178.47 84.74">
  <defs>
    <style>
      .cls-1 {
        stroke-width: 0px;
      }
    </style>
  </defs>
  <path class="cls-1" d="m127.66,21.84v-8.48c0-4.34-3.53-7.87-7.87-7.87h-8.48c-.99,0-1.79.8-1.79,1.79s.8,1.79,1.79,1.79h8.48c2.37,0,4.29,1.92,4.29,4.29v32.34c0,2.37-1.92,4.29-4.29,4.29h-8.48c-.99,0-1.79.8-1.79,1.79s.8,1.79,1.79,1.79h8.48c4.34,0,7.87-3.53,7.87-7.87v-23.86Z"/>
  <path class="cls-1" d="m53.08,34.58c.99,0,1.79-.8,1.79-1.79V12.73c0-2.01,1.92-3.65,4.29-3.65h8.48c.99,0,1.79-.8,1.79-1.79s-.8-1.79-1.79-1.79h-8.48c-4.34,0-7.87,3.24-7.87,7.23v20.07c0,.99.8,1.79,1.79,1.79Z"/>
  <path class="cls-1" d="m102.58,9.58c-5.21-3.76-11.58-5.27-17.93-4.24-6.35,1.03-11.92,4.46-15.68,9.68-1.34,1.85-2.4,3.87-3.16,6.01-.33.93.15,1.96,1.09,2.29.93.33,1.96-.15,2.29-1.09.65-1.82,1.55-3.54,2.69-5.12,1.06-1.47,2.3-2.74,3.64-3.84.08.16.16.31.3.45,2.02,2.02,2.16,3.75,2.34,5.95.2,2.46.43,5.24,3.38,8.19,2.95,2.95,5.73,3.18,8.19,3.38,2.2.18,3.94.32,5.95,2.34,2.02,2.02,2.16,3.75,2.34,5.95.16,1.99.37,4.19,1.99,6.52-3.06,2.08-6.65,3.32-10.47,3.52-.99.05-1.75.89-1.7,1.88.05.96.84,1.7,1.79,1.7.03,0,.06,0,.09,0,4.98-.26,9.63-2.04,13.46-5,.27-.08.53-.21.74-.42.1-.1.15-.22.22-.33,1.43-1.23,2.74-2.63,3.88-4.2,7.77-10.77,5.33-25.84-5.44-33.61Zm2.53,31.52c-.7.98-1.5,1.85-2.35,2.68-.93-1.46-1.05-2.87-1.19-4.53-.2-2.46-.43-5.25-3.38-8.19-2.95-2.95-5.73-3.18-8.19-3.38-2.2-.18-3.94-.32-5.95-2.34-2.02-2.02-2.16-3.75-2.34-5.95-.2-2.43-.43-5.19-3.29-8.1,6.75-3.8,15.38-3.62,22.07,1.2,9.16,6.61,11.24,19.45,4.63,28.61Z"/>
  <path class="cls-1" d="m61.56,3.58h13.67c.99,0,1.79-.8,1.79-1.79s-.8-1.79-1.79-1.79h-13.67c-.99,0-1.79.8-1.79,1.79s.8,1.79,1.79,1.79Z"/>
  <polygon class="cls-1" points="6.7 55.41 11.39 55.41 11.39 40.55 18.26 40.59 18.26 36.53 0 36.49 0 40.55 6.7 40.55 6.7 55.41"/>
  <polygon class="cls-1" points="43.1 51.34 31.12 51.34 31.13 47.93 41.87 47.97 41.87 43.96 31.13 43.92 31.12 40.74 43.1 40.74 43.1 36.72 26.44 36.72 26.44 55.41 43.1 55.41 43.1 51.34"/>
  <polygon class="cls-1" points="56.44 43.6 68.04 55.18 68.3 55.41 72.42 55.41 72.42 36.8 67.73 36.8 67.73 48.4 56.19 36.8 51.75 36.8 51.75 55.41 56.44 55.41 56.44 43.6"/>
  <path class="cls-1" d="m15.97,73.41c-1.69-.28-3.31-.46-4.87-.64-1.05-.12-2.11-.24-3.2-.39-1.13-.15-1.71-.57-1.8-.71-.15-.26.04-.61.2-.77.75-.77,2.49-1.24,4.55-1.22,1.99.02,3.8.52,4.99,1.38.76.55,1.22,1.21,1.22,1.22l.51.75,3.82-2.64-.57-.75c-1.81-2.36-5.33-3.89-9.21-3.98-4.91-.1-8.25,1.14-9.72,3.64-1.08,1.85-.79,3.97.75,5.41,1.72,1.61,4.5,2.01,8.55,2.43,1.74.18,4.38.45,5.05,1.11.11.11.37.4.33.68-.04.27-.37.59-.91.87-1.65.86-5.76.75-8.14-.21-1.65-.66-2.57-1.69-2.57-1.7l-.54-.62-3.74,2.71.45.71c.1.16.57.78,2.11,1.8,2.06,1.36,5.45,2.04,8.69,2.04s6.12-.64,7.66-1.92c1.59-1.33,2.25-3.31,1.71-5.18-.9-3.13-4.58-3.89-5.31-4.01Z"/>
  <polygon class="cls-1" points="28.09 69.44 34.79 69.44 34.79 84.31 39.49 84.31 39.49 69.45 46.36 69.48 46.36 65.42 28.09 65.38 28.09 69.44"/>
  <path class="cls-1" d="m75.22,65.76h-4.75s0,.89,0,.89c0,.28-.02,6.84.02,8.69.04,1.72-.33,2.97-1.14,3.8-.95.97-2.61,1.46-4.9,1.43-1.86,0-3.4-.54-4.34-1.5-.78-.79-1.16-1.88-1.14-3.23.04-2.33-.04-8.91-.05-9.19v-.88h-4.84v2.55c-.02,2.17-.05,5.79,0,7.47.2,6.11,3.55,8.96,10.53,8.96,8.45,0,10.46-4.56,10.66-8.39.09-1.76.01-5.45-.03-7.65l-.02-2.94Z"/>
  <path class="cls-1" d="m94.03,65.69h-10.02v18.61h3.78c1.37,0,4.07,0,5.51,0h.95c6.9,0,10.85-3.4,10.85-9.32s-4.34-9.3-11.06-9.3Zm-5.34,4.24h4.78c4.16,0,6.64,1.89,6.64,5.06,0,2.49-.85,5.03-7.14,5.03,0,0-2.44,0-4.28,0v-10.08Z"/>
  <rect class="cls-1" x="113.51" y="65.69" width="4.69" height="18.61"/>
  <path class="cls-1" d="m138.33,65.29c-6.78,0-11.7,4.03-11.7,9.59s4.92,9.59,11.69,9.59h.02c3.71,0,6.93-1.18,9.08-3.32,1.7-1.7,2.6-3.87,2.6-6.27,0-5.65-4.81-9.59-11.7-9.59Zm6.67,9.48c0,3.48-2.51,5.56-6.71,5.56-3.76,0-6.7-2.44-6.7-5.56s2.84-5.43,6.75-5.43c4.11,0,6.67,2.08,6.67,5.43Z"/>
  <path class="cls-1" d="m178.29,77.42c-.9-3.13-4.58-3.89-5.31-4.01-1.69-.28-3.31-.46-4.87-.64-1.05-.12-2.11-.24-3.2-.39-1.13-.15-1.71-.57-1.8-.71-.15-.26.04-.61.2-.77.75-.77,2.47-1.24,4.55-1.22,1.99.02,3.8.52,4.99,1.38.76.55,1.22,1.21,1.22,1.22l.51.75,3.82-2.64-.57-.75c-1.81-2.36-5.33-3.89-9.21-3.98-4.9-.1-8.25,1.14-9.72,3.64-1.08,1.85-.79,3.97.75,5.41,1.72,1.61,4.5,2.01,8.55,2.43,1.74.18,4.38.45,5.05,1.11.11.11.37.4.33.68-.04.27-.37.59-.91.87-1.65.86-5.76.75-8.14-.21-1.65-.66-2.57-1.69-2.57-1.7l-.54-.62-3.74,2.71.45.71c.1.16.57.78,2.11,1.8,2.06,1.36,5.45,2.04,8.69,2.04s6.12-.64,7.66-1.92c1.59-1.33,2.25-3.31,1.71-5.18Z"/>
</svg>