<?xml version="1.0" encoding="UTF-8"?>
<svg id="Layer_1" data-name="Layer 1" xmlns="http://www.w3.org/2000/svg" viewBox="0 0 272.04 18.72">
  <defs>
    <style>
      .cls-1 {
        stroke-width: 0px;
      }
    </style>
  </defs>
  <polygon class="cls-1" points="0 3.53 6.84 3.53 6.84 18.72 11.02 18.72 11.02 3.53 18.04 3.57 18.04 .04 0 0 0 3.53"/>
  <polygon class="cls-1" points="28.19 18.72 44.79 18.72 44.79 15.13 32.41 15.13 32.42 10.98 43.52 11.02 43.52 7.49 32.42 7.45 32.41 3.54 44.79 3.54 44.79 0 28.19 0 28.19 18.72"/>
  <polygon class="cls-1" points="71.81 12.5 59.37 0 55.2 0 55.2 18.72 59.45 18.72 59.45 6 72.04 18.56 72.22 18.72 76.06 18.72 76.06 0 71.81 0 71.81 12.5"/>
  <path class="cls-1" d="m110.68,7.93c-1.72-.29-3.37-.47-4.97-.65-1.08-.12-2.16-.24-3.29-.4-1.29-.17-1.95-.67-2.07-.88-.26-.45.05-.96.25-1.16.84-.86,2.65-1.38,4.88-1.34,2.1.02,4.02.56,5.29,1.47.83.6,1.32,1.32,1.33,1.32l.35.51,3.39-2.34-.39-.51C113.65,1.62,110.13.1,106.26,0c-4.89-.11-8.23,1.12-9.67,3.57-1.03,1.76-.75,3.79.71,5.16,1.69,1.59,4.49,1.98,8.57,2.4,2.42.25,4.64.53,5.35,1.23.19.18.49.55.43.96-.06.39-.44.78-1.1,1.12-1.96,1.01-6.3.72-8.59-.2-1.76-.71-2.74-1.82-2.75-1.83l-.37-.42-3.36,2.43.31.48c.07.11.5.71,2.07,1.75,2.07,1.37,5.48,2.06,8.73,2.06s6.09-.63,7.62-1.91c1.54-1.28,2.17-3.19,1.65-4.98-.68-2.35-3.22-3.56-5.19-3.89Z"/>
  <polygon class="cls-1" points="122.68 3.53 129.52 3.53 129.52 18.72 133.7 18.72 133.7 3.53 140.72 3.57 140.72 .04 122.68 0 122.68 3.53"/>
  <path class="cls-1" d="m169.4,0h-4.23s0,.61,0,.61c0,.28-.03,6.96.02,8.84.05,1.84-.36,3.18-1.25,4.09-1.02,1.04-2.71,1.55-5.16,1.55h-.06c-1.97,0-3.62-.58-4.64-1.62-.85-.87-1.27-2.05-1.24-3.52.04-2.37-.05-9.28-.05-9.35V0h-4.32v2.42c-.02,2.17-.05,5.79,0,7.46.2,6.02,3.51,8.83,10.42,8.83,8.36,0,10.35-4.49,10.55-8.25.09-1.78.02-5.53-.03-7.77l-.03-2.7Z"/>
  <path class="cls-1" d="m188.11,0h-10.1v18.71h3.62c1.6,0,4.94,0,6.2,0h.5c6.97,0,10.96-3.41,10.96-9.37,0-5.68-4.39-9.35-11.18-9.35Zm-5.86,14.87V3.77h5.28c4.45,0,7.22,2.14,7.22,5.58,0,1.92-.58,3.28-1.77,4.16-1.25.92-3.2,1.37-5.96,1.37h0s-2.83,0-4.76-.01Z"/>
  <rect class="cls-1" x="207.7" width="4.24" height="18.72"/>
  <path class="cls-1" d="m232.15,0c-6.76,0-11.48,3.85-11.48,9.36s4.83,9.36,11.48,9.36h.02c3.66,0,6.83-1.16,8.93-3.26,1.66-1.65,2.53-3.76,2.53-6.1,0-5.51-4.72-9.36-11.49-9.36Zm0,3.47c5.17,0,7.02,2.98,7.02,5.77s-1.86,5.9-7.07,5.9c-3.96,0-7.06-2.59-7.06-5.9s3.05-5.77,7.11-5.77Z"/>
  <path class="cls-1" d="m271.86,11.82c-.68-2.35-3.22-3.56-5.19-3.89-1.72-.29-3.37-.47-4.97-.65-1.08-.12-2.16-.24-3.29-.4-1.29-.17-1.95-.67-2.07-.88-.26-.45.05-.96.25-1.16.84-.86,2.65-1.38,4.88-1.34,2.1.02,4.02.56,5.29,1.47.83.6,1.32,1.32,1.33,1.32l.35.51,3.39-2.34-.39-.51c-1.79-2.35-5.31-3.86-9.18-3.96-4.89-.11-8.23,1.12-9.67,3.57-1.03,1.76-.75,3.79.71,5.16,1.69,1.59,4.49,1.98,8.57,2.4,2.42.25,4.64.53,5.35,1.23.19.18.49.55.43.96-.06.39-.44.78-1.1,1.12-1.96,1.01-6.3.72-8.59-.2-1.76-.71-2.74-1.82-2.75-1.83l-.37-.42-3.36,2.43.31.48c.07.11.5.71,2.07,1.75,2.07,1.37,5.48,2.06,8.73,2.06s6.09-.63,7.62-1.91c1.54-1.28,2.17-3.19,1.65-4.98Z"/>
</svg>